<?xml version="1.0" encoding="UTF-8" standalone="no"?><!-- Generator: Gravit.io --><svg xmlns="http://www.w3.org/2000/svg" xmlns:xlink="http://www.w3.org/1999/xlink" style="isolation:isolate" viewBox="0 0 100 100" width="100pt" height="100pt"><defs><clipPath id="_clipPath_uSj0YqHmFK3uotdse86eJQ8lBTuZb0OZ"><rect width="100" height="100"/></clipPath></defs><g clip-path="url(#_clipPath_uSj0YqHmFK3uotdse86eJQ8lBTuZb0OZ)"><rect x="0" y="0" width="100" height="100" transform="matrix(1,0,0,1,0,0)" fill="rgb(0,76,255)"/><path d=" M 14.235 28.858 L 3.133 71 L 47.543 71 Q 47.78 72 49.057 72 Q 50.334 72 50.571 71 L 97 71 L 85.897 28.858 L 14.235 28.858 Z " fill="rgb(255,255,255)" vector-effect="non-scaling-stroke" stroke-width="1" stroke="rgb(255,255,255)" stroke-linejoin="miter" stroke-linecap="square" stroke-miterlimit="3"/><g><rect x="14.6" y="28.858" width="70.8" height="42.283" transform="matrix(1,0,0,1,0,0)" fill="rgb(0,0,0)"/><path d=" M 14.6 28.858 L 3.133 71.142 L 14.6 71.142 L 14.6 28.858 Z " fill="rgb(0,0,0)"/><path d=" M 85.4 28.858 L 96.867 71.142 L 85.4 71.142 L 85.4 28.858 Z " fill="rgb(0,0,0)"/></g><path d=" M 18.313 30.375 Q 18.965 29.681 21.713 29.789" fill="none" vector-effect="non-scaling-stroke" stroke-width="1" stroke="rgb(255,255,255)" stroke-linejoin="miter" stroke-linecap="square" stroke-miterlimit="3"/><path d=" M 80.666 30.463 Q 79.748 29.681 77 29.789" fill="none" vector-effect="non-scaling-stroke" stroke-width="1" stroke="rgb(255,255,255)" stroke-linejoin="miter" stroke-linecap="square" stroke-miterlimit="3"/><path d=" M 76.875 29.219 L 81.75 60.858 Q 60.828 55.562 50 67.108" fill="none" vector-effect="non-scaling-stroke" stroke-width="1" stroke="rgb(255,255,255)" stroke-linejoin="miter" stroke-linecap="square" stroke-miterlimit="3"/><path d=" M 18 31 L 10 68 Q 34.297 61.469 49 68" fill="none" vector-effect="non-scaling-stroke" stroke-width="1" stroke="rgb(255,255,255)" stroke-linejoin="miter" stroke-linecap="square" stroke-miterlimit="3"/><path d=" M 81 31 L 89 68 Q 64.703 61.469 50 68" fill="none" vector-effect="non-scaling-stroke" stroke-width="1" stroke="rgb(255,255,255)" stroke-linejoin="miter" stroke-linecap="square" stroke-miterlimit="3"/><line x1="49.5" y1="68.031" x2="49.5" y2="31" vector-effect="non-scaling-stroke" stroke-width="1" stroke="rgb(255,255,255)" stroke-linejoin="miter" stroke-linecap="square" stroke-miterlimit="3"/><line x1="49" y1="69" x2="50" y2="69" vector-effect="non-scaling-stroke" stroke-width="1" stroke="rgb(0,0,0)" stroke-linejoin="miter" stroke-linecap="square" stroke-miterlimit="3"/><path d=" M 22 29 L 17 61 Q 37.922 55.703 48.75 67.25" fill="rgb(0,0,0)" vector-effect="non-scaling-stroke" stroke-width="1" stroke="rgb(255,255,255)" stroke-linejoin="miter" stroke-linecap="square" stroke-miterlimit="3"/><path d=" M 22.266 28.672 Q 33.587 23.07 49.5 28.858 Q 49.755 28.951 49 67" fill="rgb(0,0,0)" vector-effect="non-scaling-stroke" stroke-width="1" stroke="rgb(255,255,255)" stroke-linejoin="miter" stroke-linecap="square" stroke-miterlimit="3"/><path d=" M 76.564 28.858 Q 64.978 23.07 49.064 28.858 Q 48.809 28.951 49.564 67" fill="rgb(0,0,0)" vector-effect="non-scaling-stroke" stroke-width="1" stroke="rgb(255,255,255)" stroke-linejoin="miter" stroke-linecap="square" stroke-miterlimit="3"/><ellipse vector-effect="non-scaling-stroke" cx="49.56433695750725" cy="70.5" rx="2" ry="1.5" fill="rgb(0,0,0)"/></g></svg>